<svg width="512" height="512" viewBox="0 0 512 512" fill="none" xmlns="http://www.w3.org/2000/svg">
<rect width="512" height="512" fill="#222225"/>
<path d="M218.614 303.455V297.489C218.614 283.817 219.691 272.921 221.845 264.8C224 256.68 227.19 250.176 231.415 245.287C235.641 240.315 240.82 235.841 246.952 231.864C252.255 228.384 256.978 225.028 261.121 221.796C265.347 218.565 268.661 215.126 271.064 211.48C273.55 207.834 274.793 203.691 274.793 199.051C274.793 194.908 273.798 191.262 271.81 188.114C269.821 184.965 267.128 182.521 263.731 180.781C260.334 179.04 256.563 178.17 252.42 178.17C247.946 178.17 243.803 179.206 239.991 181.278C236.263 183.349 233.238 186.208 230.918 189.854C228.681 193.5 227.562 197.725 227.562 202.531H163.926C164.092 184.302 168.235 169.512 176.355 158.16C184.475 146.725 195.247 138.356 208.67 133.053C222.094 127.667 236.843 124.974 252.918 124.974C270.65 124.974 286.476 127.585 300.396 132.805C314.317 137.942 325.296 145.731 333.333 156.171C341.371 166.529 345.389 179.496 345.389 195.074C345.389 205.1 343.649 213.924 340.169 221.548C336.772 229.088 332.007 235.758 325.876 241.558C319.827 247.276 312.742 252.496 304.622 257.219C298.656 260.699 293.643 264.303 289.583 268.032C285.523 271.678 282.457 275.862 280.386 280.585C278.314 285.225 277.278 290.86 277.278 297.489V303.455H218.614ZM248.94 386.977C239.329 386.977 231.084 383.621 224.207 376.91C217.412 370.115 214.056 361.871 214.139 352.176C214.056 342.73 217.412 334.651 224.207 327.94C231.084 321.228 239.329 317.872 248.94 317.872C258.055 317.872 266.092 321.228 273.053 327.94C280.096 334.651 283.659 342.73 283.741 352.176C283.659 358.639 281.96 364.522 278.646 369.825C275.414 375.045 271.188 379.23 265.968 382.379C260.748 385.444 255.072 386.977 248.94 386.977Z" fill="white"/>
<path d="M218.614 303.455V297.489C218.614 283.817 219.691 272.921 221.845 264.8C224 256.68 227.19 250.176 231.415 245.287C235.641 240.315 240.82 235.841 246.952 231.864C252.255 228.384 256.978 225.028 261.121 221.796C265.347 218.565 268.661 215.126 271.064 211.48C273.55 207.834 274.793 203.691 274.793 199.051C274.793 194.908 273.798 191.262 271.81 188.114C269.821 184.965 267.128 182.521 263.731 180.781C260.334 179.04 256.563 178.17 252.42 178.17C247.946 178.17 243.803 179.206 239.991 181.278C236.263 183.349 233.238 186.208 230.918 189.854C228.681 193.5 227.562 197.725 227.562 202.531H163.926C164.092 184.302 168.235 169.512 176.355 158.16C184.475 146.725 195.247 138.356 208.67 133.053C222.094 127.667 236.843 124.974 252.918 124.974C270.65 124.974 286.476 127.585 300.396 132.805C314.317 137.942 325.296 145.731 333.333 156.171C341.371 166.529 345.389 179.496 345.389 195.074C345.389 205.1 343.649 213.924 340.169 221.548C336.772 229.088 332.007 235.758 325.876 241.558C319.827 247.276 312.742 252.496 304.622 257.219C298.656 260.699 293.643 264.303 289.583 268.032C285.523 271.678 282.457 275.862 280.386 280.585C278.314 285.225 277.278 290.86 277.278 297.489V303.455H218.614ZM248.94 386.977C239.329 386.977 231.084 383.621 224.207 376.91C217.412 370.115 214.056 361.871 214.139 352.176C214.056 342.73 217.412 334.651 224.207 327.94C231.084 321.228 239.329 317.872 248.94 317.872C258.055 317.872 266.092 321.228 273.053 327.94C280.096 334.651 283.659 342.73 283.741 352.176C283.659 358.639 281.96 364.522 278.646 369.825C275.414 375.045 271.188 379.23 265.968 382.379C260.748 385.444 255.072 386.977 248.94 386.977Z" fill="url(#paint0_linear_1_2)" fill-opacity="0.2"/>
<defs>
<linearGradient id="paint0_linear_1_2" x1="256" y1="44" x2="256" y2="468" gradientUnits="userSpaceOnUse">
<stop stop-opacity="0"/>
<stop offset="0.602536" stop-opacity="0.9"/>
<stop offset="0.701554" stop-opacity="0.95"/>
<stop offset="1"/>
</linearGradient>
</defs>
</svg>
